<?xml version="1.0" ?><svg viewBox="0 0 96 96" xmlns="http://www.w3.org/2000/svg"><defs><style>.cls-1{fill:#464965;}</style></defs><title/><g id="soap"><path class="cls-1" d="M67,26.66a1.5,1.5,0,1,1,3,0,6.13,6.13,0,1,0,1.8-4.35,1.5,1.5,0,0,1-2.12-2.12A9.15,9.15,0,1,1,67,26.66ZM83.73,39.2a7.33,7.33,0,1,1-7.33,7.33A7.34,7.34,0,0,1,83.73,39.2Zm0,3a4.33,4.33,0,1,0,4.34,4.33A4.34,4.34,0,0,0,83.73,42.2ZM61.4,52.36a5.4,5.4,0,1,1,5.4,5.4A5.4,5.4,0,0,1,61.4,52.36Zm3,0A2.4,2.4,0,1,0,66.8,50,2.41,2.41,0,0,0,64.4,52.36ZM56.72,84a9.54,9.54,0,0,1-9.56,9.5H13.56A9.54,9.54,0,0,1,4,84V62.21a1.5,1.5,0,0,1,3,0V84a6.53,6.53,0,0,0,6.56,6.5h33.6A6.53,6.53,0,0,0,53.72,84V55.27A16.84,16.84,0,0,0,36.83,38.52H23.89A16.86,16.86,0,0,0,8.34,48.71c-.09.25-.5,1.47-.8,2.48a1.5,1.5,0,0,1-2.88-.84c.35-1.2.84-2.62.87-2.68l0-.09A19.88,19.88,0,0,1,23.89,35.52H36.63V27.87H24.09v4.59a1.5,1.5,0,0,1-3,0V26.37a1.5,1.5,0,0,1,1.5-1.5h2.58V14a14.25,14.25,0,0,0-9.62,4.13,5.92,5.92,0,0,1-8.3,0,5.81,5.81,0,0,1,0-8.27,25.38,25.38,0,0,1,18-7.39H39.49a4.23,4.23,0,0,1,4.23,4.2v3.1A4.22,4.22,0,0,1,39.49,14H35.55V24.87h2.58a1.5,1.5,0,0,1,1.5,1.5v9.37A19.8,19.8,0,0,1,56.72,55.27ZM25.66,11H39.49a1.21,1.21,0,0,0,1.23-1.2V6.66a1.22,1.22,0,0,0-1.23-1.2H25.23A22.42,22.42,0,0,0,9.36,12a2.81,2.81,0,0,0,0,4,2.92,2.92,0,0,0,4.08,0A17.24,17.24,0,0,1,25.66,11Zm6.89,13.91V14H28.17V24.87ZM5.5,58.1a1.52,1.52,0,0,0,1.06-.44,1,1,0,0,0,.18-.23,1.23,1.23,0,0,0,.14-.25A1.8,1.8,0,0,0,7,56.9a1.53,1.53,0,0,0,0-.3,1.43,1.43,0,0,0,0-.29,1.69,1.69,0,0,0-.41-.77,1.55,1.55,0,0,0-2.12,0,1.37,1.37,0,0,0-.19.23,1.3,1.3,0,0,0-.14.26.9.9,0,0,0-.08.28,1.43,1.43,0,0,0,0,.29,1.5,1.5,0,0,0,1.5,1.5Zm42.29-.43a1.5,1.5,0,0,0,3,0,16.67,16.67,0,0,0-16.71-16.6,1.5,1.5,0,0,0,0,3A13.67,13.67,0,0,1,47.79,57.67Zm-36,16a1.5,1.5,0,0,0-1.5,1.5v5.41a6.94,6.94,0,0,0,7,6.9h5.17a1.5,1.5,0,0,0,0-3H17.24a3.93,3.93,0,0,1-3.95-3.9V75.15A1.5,1.5,0,0,0,11.79,73.65ZM78.54,86.54a1.5,1.5,0,0,0,0-3H65.08a1.5,1.5,0,0,0,0,3ZM80.84,62H62a1.5,1.5,0,0,0,0,3H80.84a8.25,8.25,0,0,1,8.24,8.24v9a8.26,8.26,0,0,1-8.24,8.25H62a8.24,8.24,0,0,1-3.4-.73,1.5,1.5,0,0,0-1.24,2.73,11.19,11.19,0,0,0,4.64,1H80.84A11.25,11.25,0,0,0,92.08,82.25v-9A11.25,11.25,0,0,0,80.84,62Z"/></g></svg>