<svg id="Layer_1" version="1.1" viewBox="0 0 30 30" xml:space="preserve" xmlns="http://www.w3.org/2000/svg"><style></style><path d="M24.5 18c-1.7-.5-3.3-1.1-4.8-2l-1.6-1 1.6-.9c1.5-.9 3.1-1.6 4.8-2 .6-.2.9-.9.6-1.5l-1.2-2.2c-.3-.6-1.1-.7-1.6-.2-1.2 1.2-2.6 2.3-4.2 3.2l-1.6.9v-1.9c0-1.8.2-3.5.7-5.2.2-.6-.3-1.3-1-1.3h-2.5c-.7 0-1.1.6-1 1.3.4 1.7.7 3.4.7 5.2v1.9l-1.6-.9c-1.5-.9-2.9-1.9-4.2-3.2-.4-.4-1.2-.3-1.5.2l-1.2 2.2c-.3.6 0 1.3.6 1.5 1.7.5 3.3 1.1 4.8 2l1.6.9-1.6.9c-1.5.9-3.1 1.6-4.8 2-.6.2-.9.9-.6 1.5l1.2 2.2c.3.6 1.1.7 1.6.2 1.2-1.2 2.6-2.3 4.2-3.2l1.6-.9v1.9c0 1.8-.2 3.5-.7 5.2-.2.6.3 1.3 1 1.3h2.5c.7 0 1.1-.6 1-1.3-.4-1.7-.7-3.4-.7-5.2v-1.9l1.6.9c1.5.9 2.9 1.9 4.2 3.2.5.5 1.2.4 1.6-.2l1.2-2.2c.3-.5 0-1.3-.7-1.4z" fill="#c6c9cc"/></svg>