<?xml version="1.0" ?>
<svg viewBox="0 0 512 512" xmlns="http://www.w3.org/2000/svg">
  <style>
    .st0{fill:#333}
  </style>
  <g id="Layer_2">
    <path class="st0" d="M418.47 189.97c-36.41 0-66.03 29.62-66.03 66.03s29.62 66.03 66.03 66.03S484.5 292.41 484.5 256s-29.62-66.03-66.03-66.03zm0 100.06c-18.76 0-34.03-15.26-34.03-34.03s15.26-34.03 34.03-34.03S452.5 237.24 452.5 256s-15.26 34.03-34.03 34.03zM189.97 256c0 36.41 29.62 66.03 66.03 66.03s66.03-29.62 66.03-66.03-29.62-66.03-66.03-66.03-66.03 29.62-66.03 66.03zm100.06 0c0 18.76-15.26 34.03-34.03 34.03s-34.03-15.26-34.03-34.03 15.26-34.03 34.03-34.03 34.03 15.27 34.03 34.03zM93.53 322.03c36.41 0 66.03-29.62 66.03-66.03s-29.62-66.03-66.03-66.03S27.5 219.59 27.5 256s29.62 66.03 66.03 66.03zm0-100.06c18.76 0 34.03 15.26 34.03 34.03s-15.26 34.03-34.03 34.03S59.5 274.76 59.5 256s15.26-34.03 34.03-34.03z"/>
  </g>
</svg>
