<svg height="200" width="200" xmlns="http://www.w3.org/2000/svg"><g fill="#5E889E"><path d="M196.789 36.247l-27.345 27.345a13.917 13.917 0 01-9.879 4.095 13.943 13.943 0 01-9.892-4.095l-6.591-6.588c-2.53-2.532-4.089-6.027-4.089-9.888s1.559-7.354 4.089-9.884l27.345-27.345c-16.718-6.55-36.461-3.079-49.97 10.431-18.2 18.197-18.2 47.704 0 65.9 18.201 18.201 47.704 18.201 65.9 0 13.514-13.508 16.983-33.249 10.432-49.971zM50.082 120.566l-28.376 26.31a26.03 26.03 0 00-8.345 18.645 26.003 26.003 0 007.637 18.943l1.219 1.218a26 26 0 0018.94 7.637c7.386-.138 13.988-3.327 18.644-8.347l26.31-28.376-36.029-36.03zm-1.239 53.743c-4.544 4.553-11.922 4.553-16.474 0-4.548-4.548-4.548-11.926 0-16.474 4.552-4.553 11.93-4.553 16.474 0 4.548 4.548 4.548 11.926 0 16.474z"/><g><path d="M94.456 75.744a6.493 6.493 0 00-4.612 1.908L59.53 107.969a6.492 6.492 0 00-1.91 4.612c0 1.803.727 3.434 1.91 4.612l67.875 67.88c10.927 10.921 28.624 10.917 39.542 0 10.923-10.92 10.923-28.621 0-39.542L99.068 77.652a6.491 6.491 0 00-4.612-1.908zm46.461 91.864c1.811 1.813 1.811 4.778 0 6.589a4.672 4.672 0 01-6.591 0l-59.31-59.31c-1.814-1.811-1.814-4.776 0-6.591 1.811-1.811 4.776-1.811 6.59 0l59.311 59.312zm15.159-15.157c1.811 1.813 1.811 4.778 0 6.591s-4.78 1.813-6.591 0l-59.31-59.313a4.663 4.663 0 010-6.59c1.807-1.813 4.776-1.813 6.586.002l59.315 59.31zM18.948 54.627l7.414-.258 38.771 38.769 9.883-9.886L36.25 44.486l.256-7.416a3.714 3.714 0 00-1.747-3.284L9.888 18.128 0 28.01l15.667 24.877a3.724 3.724 0 003.281 1.74z"/></g></g></svg>